<?xml version="1.0" encoding="UTF-8" standalone="no"?>
<svg
   xmlns:dc="http://purl.org/dc/elements/1.1/"
   xmlns:cc="http://creativecommons.org/ns#"
   xmlns:rdf="http://www.w3.org/1999/02/22-rdf-syntax-ns#"
   xmlns:svg="http://www.w3.org/2000/svg"
   xmlns="http://www.w3.org/2000/svg"
   xmlns:sodipodi="http://sodipodi.sourceforge.net/DTD/sodipodi-0.dtd"
   xmlns:inkscape="http://www.inkscape.org/namespaces/inkscape"
   width="210mm"
   height="297mm"
   viewBox="0 0 210 297"
   version="1.1"
   id="svg8"
   inkscape:version="1.0.1 (0767f8302a, 2020-10-17)"
   sodipodi:docname="logo.svg">
  <defs
     id="defs2" />
  <sodipodi:namedview
     id="base"
     pagecolor="#ffffff"
     bordercolor="#666666"
     borderopacity="1.0"
     inkscape:pageopacity="0.0"
     inkscape:pageshadow="2"
     inkscape:zoom="0.35"
     inkscape:cx="400"
     inkscape:cy="560"
     inkscape:document-units="mm"
     inkscape:current-layer="layer1"
     inkscape:document-rotation="0"
     showgrid="false"
     inkscape:window-width="1920"
     inkscape:window-height="1031"
     inkscape:window-x="0"
     inkscape:window-y="25"
     inkscape:window-maximized="1" />
  <metadata
     id="metadata5">
    <rdf:RDF>
      <cc:Work
         rdf:about="">
        <dc:format>image/svg+xml</dc:format>
        <dc:type
           rdf:resource="http://purl.org/dc/dcmitype/StillImage" />
        <dc:title />
      </cc:Work>
    </rdf:RDF>
  </metadata>
  <g
     inkscape:label="Layer 1"
     inkscape:groupmode="layer"
     id="layer1">
    <path
       id="path1"
       style="fill:#000000;stroke:none;stroke-width:0.1;stroke-linejoin:round;stroke-miterlimit:4;stroke-dasharray:none"
       d="M 0,0 10,10 V 0 Z" />
    <path
       id="path2"
       style="fill:#000000;stroke:none;stroke-width:0.1;stroke-linejoin:round;stroke-miterlimit:4;stroke-dasharray:none"
       d="m 40,10 c 0,20 0,40 0,60 3.333333,0 6.666667,0 10,0 0,-16.666667 0,-33.333333 0,-50 -3.333333,-3.333333 -6.666667,-6.666667 -10,-10 z" />
    <path
       id="path3"
       style="fill:#000000;stroke:none;stroke-width:0.1;stroke-linejoin:round;stroke-miterlimit:4;stroke-dasharray:none"
       d="m 60,30 c 0,13.333333 0,26.666667 0,40 3.333333,0 6.666667,0 10,0 0,-10 0,-20 0,-30 -3.333333,-3.333333 -6.666667,-6.666667 -10,-10 z" />
    <path
       id="path4"
       style="fill:#000000;stroke:none;stroke-width:0.1;stroke-linejoin:round;stroke-miterlimit:4;stroke-dasharray:none"
       d="m 80,50 c 0,6.666667 0,13.333333 0,20 3.333333,0 6.666667,0 10,0 0,-3.333333 0,-6.666667 0,-10 -3.333333,-3.333333 -6.666667,-6.666667 -10,-10 z" />
    <path
       id="path5"
       style="fill:#000000;stroke:none;stroke-width:0.1;stroke-linejoin:round;stroke-miterlimit:4;stroke-dasharray:none"
       d="m 20,0 c 0,10 0,20 0,30 3.333333,3.333333 6.666667,6.666667 10,10 0,-13.333333 0,-26.666667 0,-40 -3.333333,0 -6.666667,0 -10,0 z" />
    <path
       id="path6"
       style="fill:#000000;stroke:none;stroke-width:0.1;stroke-linejoin:round;stroke-miterlimit:4;stroke-dasharray:none"
       d="m 50,80 c 0,3.333333 0,6.666667 0,10 20,0 40,0 60,0 -3.333333,-3.333333 -6.666667,-6.666667 -10,-10 -16.666667,0 -33.333333,0 -50,0 z" />
  </g>
</svg>
